<?xml version="1.0" encoding="utf-8"?>
<!-- Generator: Adobe Illustrator 16.0.0, SVG Export Plug-In . SVG Version: 6.00 Build 0)  -->
<!DOCTYPE svg PUBLIC "-//W3C//DTD SVG 1.1//EN" "http://www.w3.org/Graphics/SVG/1.1/DTD/svg11.dtd">
<svg version="1.1" id="Layer_1" xmlns="http://www.w3.org/2000/svg" xmlns:xlink="http://www.w3.org/1999/xlink" x="0px" y="0px"
	 width="69.083px" height="119.9px" viewBox="0 0 69.083 119.9" enable-background="new 0 0 69.083 119.9" xml:space="preserve">
<g>
	<defs>
		<rect id="_x3C_Slice_x3E_" x="-9" y="0.9" width="87" height="119"/>
	</defs>
	<clipPath id="_x3C_Slice_x3E__1_">
		<use xlink:href="#_x3C_Slice_x3E_"  overflow="visible"/>
	</clipPath>
	<g clip-path="url(#_x3C_Slice_x3E__1_)">
		<path fill-rule="evenodd" clip-rule="evenodd" fill="#F0F0F0" d="M0.378,18.379c22.888,0,45.652,0,68.508,0
			c0,0.383,0,0.709,0,1.035c0,10.542,0.013,21.084-0.007,31.626c-0.019,9.901-2.195,19.318-6.917,28.02
			c-3.137,5.781-7.274,10.864-12.271,15.199c-2.204,1.913-4.582,3.575-7.151,4.964c-2.299,1.24-4.708,2.215-7.207,2.976
			c-0.517,0.157-0.985,0.157-1.503-0.001c-5.778-1.764-10.844-4.762-15.309-8.804c-4.511-4.086-8.202-8.854-11.16-14.136
			c-2.719-4.855-4.529-10.102-5.681-15.557C0.779,59.42,0.367,55.09,0.374,50.713c0.018-10.27,0.005-20.54,0.004-30.809
			C0.378,19.423,0.378,18.941,0.378,18.379z M28.248,35.683c-0.312-0.18-0.406-0.061-0.397,0.3c1.733,0,3.425-0.007,5.116,0.004
			c0.483,0.003,0.728-0.333,0.977-0.641c0.178-0.22,0.276-0.506,0.426-0.795c-0.908-0.706-1.867-0.868-2.837-0.38
			c-0.907,0.457-1.78,0.726-2.775,0.182c-0.149,0.507-0.741,0.74-0.511,1.327L28.248,35.683z M30.643,82.519
			c0.377,0,0.753,0,1.184,0c0-0.264,0.007-0.465-0.006-0.665c-0.002-0.038-0.081-0.071-0.212-0.181
			c-0.311,0.275-0.637,0.564-0.963,0.854c0.232-0.51,0.464-1.021,0.78-1.719c-0.441,0.217-0.684,0.336-0.952,0.467
			c0-0.479,0.541-0.811,0.169-1.366c-0.286,0.265-0.537,0.497-0.82,0.761c-0.038-0.622,0.523-1.105,0.321-1.784
			c-0.316,0.164-0.554,0.288-0.832,0.432c0.138-0.485,0.247-0.869,0.398-1.405c-0.422,0.16-0.658,0.248-0.956,0.36
			c0.061-0.397,0.115-0.749,0.193-1.259c-0.382,0.272-0.598,0.426-0.857,0.611c0.042-0.506,0.076-0.912,0.123-1.487
			c-0.313,0.231-0.483,0.358-0.639,0.474c-0.296-0.308-0.554-0.574-0.811-0.84c-0.052,0.035-0.104,0.071-0.156,0.107
			c0.107,0.365,0.214,0.73,0.329,1.119c-0.249,0.092-0.463,0.17-0.845,0.311c0.578,0.271,1.008,0.473,1.521,0.713
			c-0.4,0.121-0.67,0.203-0.94,0.285c0.001,0.063,0.002,0.125,0.004,0.188c0.434,0.087,0.869,0.174,1.386,0.277
			c-0.383,0.254-0.667,0.441-1.128,0.748c0.659,0.121,1.107,0.205,1.623,0.3c-0.397,0.204-0.717,0.369-1.038,0.534
			c0.011,0.062,0.022,0.124,0.034,0.186c0.423,0.115,0.847,0.23,1.34,0.363c-0.27,0.21-0.48,0.373-0.807,0.627
			c0.471,0.087,0.786,0.169,1.107,0.199c0.34,0.031,0.057,0.578,0.52,0.547C30.015,82.253,30.333,82.433,30.643,82.519z
			 M61.08,78.234c0.213-0.374,0.413-0.672,0.561-0.993c0.545-1.182,1.148-2.344,1.592-3.563c0.879-2.415,1.653-4.868,2.504-7.293
			c0.199-0.567,0.069-0.926-0.424-1.205c-0.078-0.044-0.145-0.107-0.217-0.163c-9.876-7.526-19.752-15.053-29.628-22.579
			c-0.261-0.199-0.528-0.391-0.839-0.621C24.174,49.78,13.75,57.719,3.366,65.626c0.6,3.415,3.804,11.477,4.96,12.496
			c8.752-6.783,17.51-13.57,26.314-20.394C43.453,64.563,52.228,71.369,61.08,78.234z M62.554,35.795
			c0.074-0.301,0.15-0.56,0.201-0.825c0.364-1.902,0.728-3.804,1.082-5.708c0.13-0.703,0.154-1.451,0.969-1.785
			c0.099-0.041,0.169-0.172,0.233-0.272c0.337-0.529,0.211-1.183-0.289-1.522c-0.503-0.342-1.167-0.238-1.535,0.264
			c-0.139,0.191-0.224,0.422-0.33,0.629c-0.982-0.049-1.515,0.197-1.751,0.801c-0.273,0.697-0.025,1.174,1.016,1.956
			c0,0.394,0.019,0.787-0.007,1.178c-0.016,0.239-0.082,0.479-0.158,0.708c-0.346,1.032-1.15,1.252-1.945,0.516
			c-0.193-0.179-0.298-0.453-0.445-0.687c-0.351,0.286-0.508,0.423-0.674,0.548c-1.044,0.777-1.874,0.464-2.052-0.835
			c-0.088-0.641,0.014-1.308,0.029-1.972c1.157,0.131,1.758-0.213,1.849-0.972c0.086-0.725-0.359-1.114-1.559-1.36
			c0.275-1.054,0.23-1.411-0.218-1.736c-0.414-0.301-1.121-0.311-1.544-0.018c-0.72,0.497-0.417,1.152-0.202,1.771
			c-1.216,0.189-1.658,0.544-1.578,1.29c0.027,0.253,0.148,0.531,0.31,0.729c0.38,0.464,0.95,0.39,1.526,0.31
			c0,0.747,0.058,1.386-0.012,2.011c-0.132,1.175-0.973,1.532-1.937,0.863c-0.219-0.152-0.423-0.324-0.688-0.529
			c-0.206,0.23-0.368,0.454-0.57,0.63c-0.755,0.661-1.498,0.489-1.86-0.44c-0.269-0.689-0.289-1.407-0.168-2.103
			c0.94-0.549,1.248-1.063,1.005-1.737c-0.087-0.243-0.253-0.543-0.464-0.639c-0.416-0.189-0.888-0.255-1.385-0.383
			c-0.088-0.161-0.182-0.426-0.353-0.625c-0.368-0.432-1.025-0.475-1.48-0.139c-0.476,0.352-0.6,0.939-0.28,1.449
			c0.11,0.175,0.252,0.382,0.428,0.453c0.507,0.204,0.599,0.609,0.682,1.076c0.282,1.579,0.591,3.152,0.893,4.728
			c0.151,0.791,0.311,1.58,0.467,2.374C54.061,34.633,58.264,34.627,62.554,35.795z M19.44,35.8c0.07-0.305,0.152-0.62,0.212-0.939
			c0.325-1.724,0.625-3.454,0.973-5.173c0.173-0.852,0.176-1.75,1.117-2.316c0.586-0.353,0.457-1.25-0.072-1.652
			c-0.542-0.412-1.265-0.276-1.651,0.324c-0.112,0.174-0.181,0.375-0.267,0.556c-0.984-0.082-1.496,0.153-1.75,0.793
			c-0.275,0.693-0.031,1.152,1.07,1.97c-0.015,0.334-0.015,0.697-0.052,1.056c-0.028,0.27-0.077,0.543-0.163,0.799
			c-0.344,1.031-1.152,1.248-1.949,0.518c-0.197-0.18-0.333-0.426-0.494-0.638c-0.38,0.29-0.626,0.518-0.908,0.686
			c-0.776,0.464-1.427,0.217-1.689-0.652c-0.231-0.767-0.18-1.537,0.034-2.295c1.105,0.059,1.701-0.28,1.758-1.024
			c0.02-0.251-0.039-0.623-0.206-0.752c-0.381-0.295-0.852-0.474-1.329-0.723c0.135-0.514,0.43-1.154-0.256-1.625
			c-0.465-0.319-0.977-0.323-1.46-0.045c-0.807,0.462-0.452,1.178-0.285,1.819c-1.205,0.167-1.63,0.541-1.562,1.311
			c0.066,0.756,0.567,1.061,1.882,1.074c0,0.476,0.005,0.956-0.002,1.435c-0.003,0.211-0.01,0.427-0.054,0.632
			c-0.223,1.055-0.997,1.368-1.891,0.767c-0.24-0.161-0.462-0.349-0.709-0.537c-0.169,0.179-0.292,0.311-0.416,0.441
			c-0.349,0.362-0.736,0.666-1.275,0.52c-0.577-0.157-0.748-0.662-0.886-1.167c-0.047-0.174-0.056-0.359-0.075-0.539
			c-0.065-0.634-0.174-1.228,0.625-1.59c0.449-0.204,0.579-0.759,0.436-1.281c-0.14-0.509-0.478-0.848-0.995-0.952
			c-0.258-0.052-0.535-0.009-0.811-0.009c-0.123-0.231-0.218-0.492-0.38-0.7c-0.35-0.448-0.999-0.529-1.473-0.22
			c-0.48,0.313-0.647,0.928-0.354,1.435c0.117,0.203,0.283,0.435,0.483,0.521c0.464,0.2,0.566,0.579,0.645,1
			c0.312,1.665,0.623,3.331,0.94,4.995c0.139,0.727,0.292,1.451,0.437,2.163C10.954,34.641,15.158,34.632,19.44,35.8z
			 M29.422,86.057c-0.26,0.737-0.448,1.41-0.73,2.042c-0.567,1.271-1.187,2.52-1.784,3.777c-0.493,1.036-0.142,1.586,1.097,1.605
			c0.113-0.278,0.25-0.578,0.356-0.887c0.511-1.489,1.014-2.98,1.52-4.471c0.078-0.229,0.127-0.477,0.25-0.679
			c0.064-0.108,0.256-0.14,0.555-0.284c-0.089,0.426-0.116,0.688-0.198,0.93c-0.563,1.663-1.138,3.322-1.709,4.982
			c-0.069,0.199-0.166,0.395-0.208,0.6c-0.098,0.471,0.169,0.789,0.755,0.934c0.608,0.148,0.838,0.057,0.987-0.453
			c0.118-0.406,0.194-0.824,0.276-1.24c0.299-1.515,0.591-3.03,0.888-4.545c0.05-0.252,0.025-0.572,0.564-0.553
			c-0.032,0.379-0.028,0.754-0.1,1.115c-0.366,1.84-0.757,3.675-1.121,5.516c-0.037,0.186-0.018,0.432,0.079,0.584
			c0.226,0.354,0.928,0.495,1.418,0.369c0.491-0.127,0.43-0.523,0.457-0.875c0.134-1.751,0.257-3.504,0.397-5.254
			c0.027-0.336-0.056-0.725,0.266-0.969c0.45,0.104,0.354,0.416,0.338,0.668c-0.069,1.058-0.152,2.114-0.232,3.172
			c-0.082,1.08-0.167,2.16-0.247,3.184c0.124,0.098,0.166,0.146,0.219,0.171c1.29,0.611,1.928,0.206,1.827-1.183
			c-0.111-1.54-0.257-3.078-0.368-4.619c-0.022-0.305-0.175-0.662,0.178-0.916c0.382,0.084,0.333,0.393,0.354,0.646
			c0.157,1.78,0.3,3.562,0.462,5.341c0.054,0.588,0.449,0.836,1.096,0.729c0.64-0.105,0.842-0.366,0.712-0.984
			c-0.181-0.858-0.393-1.711-0.58-2.568c-0.053-0.246-0.211-0.538,0.196-0.699c0.335,0.129,0.333,0.47,0.4,0.742
			c0.208,0.852,0.403,1.709,0.566,2.57c0.085,0.45,0.333,0.533,0.715,0.441c0.661-0.16,0.861-0.52,0.616-1.205
			c-0.694-1.938-1.409-3.869-2.11-5.805c-0.097-0.265-0.161-0.543-0.264-0.896c0.6-0.058,0.645,0.309,0.75,0.596
			c0.701,1.902,1.399,3.807,2.099,5.711c0.092,0.248,0.192,0.494,0.284,0.729c1.06-0.195,1.228-0.462,0.881-1.32
			c-0.806-1.992-1.614-3.984-2.423-5.975c-0.089-0.221-0.194-0.434-0.301-0.673c-0.774,0.077-1.518,0.152-2.373,0.238
			c0.205,0.665,0.393,1.272,0.625,2.026c-0.499-0.146-0.914-0.179-1.224-0.375c-0.582-0.369-1.101-0.837-1.652-1.255
			c-0.208-0.157-0.423-0.397-0.652-0.422C32.043,86.235,30.747,86.157,29.422,86.057z M40.278,25.227
			c-0.917,0.047-1.697-0.249-2.454-0.644c-0.21-0.109-0.459-0.158-0.696-0.197c-0.704-0.116-1.297,0.155-1.86,0.548
			c-0.501,0.35-0.355,0.861-0.357,1.327c-0.011,2.239-0.005,4.478-0.005,6.717c0,0.318,0,0.636,0,0.983
			c0.213-0.031,0.311-0.022,0.385-0.059c0.977-0.478,1.928-0.403,2.868,0.108c0.211,0.115,0.433,0.229,0.663,0.29
			c0.984,0.263,1.501-0.129,1.503-1.133c0.004-2.36,0.002-4.72,0-7.08C40.325,25.82,40.297,25.554,40.278,25.227z M34.341,33.987
			c0.017-0.344,0.042-0.635,0.043-0.925c0.003-2.302,0.002-4.604,0.001-6.905c0-1.033-0.273-1.445-1.286-1.635
			c-0.515-0.096-1.091-0.056-1.604,0.069c-0.833,0.205-1.635,0.53-2.546,0.836c0,2.675,0,5.457,0,8.239
			c0,0.425,0.304,0.563,0.637,0.652c0.534,0.142,1.006-0.034,1.471-0.293c0.928-0.518,1.888-0.61,2.872-0.146
			C34.031,33.926,34.15,33.938,34.341,33.987z M18.963,36.453c-2.065-1.265-9.729-1.27-11.906-0.008
			C8.776,37.799,17.169,37.805,18.963,36.453z M50.09,36.469c0.179,0.118,0.265,0.205,0.37,0.238
			c0.401,0.13,0.801,0.276,1.213,0.358c2.3,0.458,4.624,0.473,6.947,0.271c0.927-0.081,1.845-0.292,2.76-0.477
			c0.265-0.053,0.507-0.219,0.845-0.372C59.777,35.204,52.589,35.199,50.09,36.469z M38.661,75.432
			c-0.034-0.087-0.069-0.174-0.104-0.261c-0.295,0-0.591,0-0.97,0c0.369-0.342,0.658-0.61,1.07-0.992
			c-0.547-0.03-0.886-0.049-1.361-0.075c0.443-0.368,0.767-0.639,1.091-0.908c-0.031-0.052-0.063-0.103-0.094-0.153
			c-0.312,0.049-0.624,0.099-1.032,0.163c0.343-0.462,0.63-0.849,1.042-1.403c-0.466,0.115-0.707,0.174-0.835,0.206
			c-0.418-0.337-0.143-0.899-0.647-1.161c-0.126,0.398-0.242,0.762-0.359,1.133c-0.263-0.021-0.489-0.039-0.846-0.068
			c0.312,0.461,0.555,0.822,0.819,1.213c-0.35-0.025-0.641-0.046-1.138-0.082c0.414,0.441,0.672,0.717,0.96,1.024
			c-0.365,0.06-0.658,0.108-0.952,0.157c-0.015,0.061-0.03,0.122-0.045,0.184c0.358,0.238,0.717,0.477,1.245,0.83
			c-0.503,0-0.809,0-1.114,0c-0.003,0.039-0.007,0.078-0.01,0.118c0.27,0.052,0.54,0.104,0.773,0.149
			c0.233,0.481-0.231,1.049,0.324,1.394c0.039,0.024-0.002,0.169,0.003,0.257c0.033,0.563,0.066,1.123,0.104,1.685
			c0.039,0.584,0.11,1.167,0.117,1.75c0.005,0.482-0.097,0.966-0.083,1.447c0.008,0.282,0.151,0.56,0.233,0.839
			c0.067,0.004,0.135,0.009,0.203,0.014c-0.354-1,0.421-1.595,0.689-2.37c0.229-0.662,0.865-1.188,0.716-1.987
			c-0.293-0.02-0.563-0.038-0.922-0.063c0.434-0.351,0.765-0.617,1.252-1.012c-0.529-0.04-0.823-0.063-1.16-0.088
			c0.286-0.405,0.834-0.409,0.928-0.98c-0.499,0.072-0.931,0.135-1.561,0.227C37.666,76.142,38.164,75.786,38.661,75.432z
			 M30.656,76.866c-0.017,0.072-0.034,0.145-0.052,0.217c0.359,0.251,0.717,0.502,1.173,0.821c-0.447,0.032-0.767,0.056-1.252,0.092
			c0.446,0.338,0.737,0.558,1.097,0.831c-0.415,0.047-0.704,0.08-1.076,0.122c0.537,1.192,1.418,2.104,1.864,3.274
			c0.04-0.252-0.066-0.521,0.003-0.732c0.299-0.931-0.133-1.884,0.142-2.832c0.093-0.32-0.102-0.738,0.19-1.078
			c0.033-0.037-0.128-0.237-0.192-0.365c-0.035-0.07-0.055-0.146-0.126-0.345c0.21-0.126,0.444-0.264,0.579-0.345
			c-0.063-0.405-0.103-0.668-0.143-0.928c0.403-0.291,0.771-0.557,1.14-0.822c-0.027-0.061-0.054-0.121-0.081-0.182
			c-0.381,0-0.762,0-1.231,0c0.441-0.377,0.785-0.67,1.128-0.963c-0.034-0.055-0.067-0.107-0.101-0.162
			c-0.303,0.063-0.604,0.126-1.028,0.215c0.359-0.469,0.651-0.85,0.944-1.231c-0.04-0.043-0.079-0.085-0.118-0.128
			c-0.244,0.05-0.488,0.1-0.75,0.153c-0.121-0.438-0.226-0.817-0.331-1.197c-0.054,0.009-0.108,0.017-0.162,0.024
			c-0.108,0.395-0.215,0.788-0.322,1.178c-0.287-0.046-0.535-0.086-0.96-0.154c0.411,0.513,0.712,0.89,1.085,1.355
			c-0.479-0.095-0.818-0.162-1.157-0.23c-0.03,0.047-0.061,0.095-0.091,0.143c0.272,0.275,0.545,0.552,0.85,0.861
			c-0.363,0.054-0.645,0.096-0.982,0.146c0.196,0.705,0.949,0.654,1.272,1.108c-0.455,0.173-0.916-0.254-1.375,0.132
			c0.347,0.322,0.656,0.608,1.012,0.938C31.222,76.817,30.939,76.842,30.656,76.866z M36.314,80.504
			c-0.03-0.05-0.06-0.099-0.089-0.149c-0.382,0.045-0.764,0.09-1.209,0.143c0.362-0.563,1.179-0.557,1.258-1.342
			c-0.414,0-0.77,0-1.251,0c0.461-0.326,0.814-0.575,1.167-0.824c-0.017-0.052-0.033-0.104-0.049-0.154
			c-0.381-0.026-0.763-0.053-1.181-0.082c0.298-0.451,0.917-0.467,1.055-1.09c-0.395,0.047-0.714,0.085-1.098,0.131
			c0.355-0.441,0.645-0.801,0.935-1.161c-0.032-0.046-0.063-0.091-0.095-0.137c-0.246,0.051-0.492,0.103-0.757,0.157
			c-0.126-0.428-0.249-0.844-0.372-1.26c-0.056,0.004-0.111,0.008-0.167,0.012c-0.103,0.418-0.206,0.838-0.31,1.262
			c-0.276-0.061-0.522-0.113-0.958-0.208c0.391,0.546,0.667,0.931,0.986,1.376c-0.413-0.063-0.715-0.109-1.017-0.156
			c-0.02,0.05-0.039,0.1-0.059,0.149c0.266,0.28,0.532,0.56,0.83,0.873c-0.411,0.048-0.709,0.083-1.008,0.118
			c-0.012,0.071-0.024,0.143-0.036,0.214c0.379,0.255,0.759,0.511,1.3,0.874c-0.572,0-0.942,0-1.538,0
			c0.493,0.451,0.833,0.763,1.235,1.131c-0.404,0-0.708,0-1.012,0c-0.025,0.053-0.05,0.106-0.075,0.16
			c0.404,0.32,0.809,0.641,1.32,1.045c-0.498-0.055-0.859-0.094-1.293-0.142c0.675,1.045,1.603,0.778,2.462,0.718
			c0.427-0.029,0.755-0.259,1-0.752c-0.377,0-0.659,0-1.048,0C35.659,81.056,35.987,80.78,36.314,80.504z M37.926,81.03
			c-0.036,0.047-0.072,0.094-0.107,0.142c0.151,0.306,0.303,0.61,0.499,1.004c-0.349-0.14-0.587-0.234-0.842-0.337
			c-0.25,0.437-0.064,0.725,0.165,1.068c0.521-0.117,1.021-0.219,1.516-0.343c0.455-0.114,1.006,0.193,1.5-0.327
			c-0.34-0.153-0.577-0.26-0.918-0.414c0.5-0.158,0.858-0.272,1.216-0.387c0-0.059,0-0.116,0-0.174
			c-0.31-0.104-0.619-0.209-0.993-0.334c0.491-0.373,1.218-0.092,1.562-0.728c-0.283-0.173-0.522-0.319-0.808-0.495
			c0.442-0.113,0.802-0.207,1.353-0.35c-0.45-0.293-0.718-0.467-1.036-0.674c0.48-0.162,0.854-0.288,1.229-0.414
			c-0.006-0.054-0.013-0.107-0.02-0.161c-0.25-0.091-0.5-0.183-0.841-0.308c0.46-0.243,0.818-0.432,1.331-0.703
			c-0.395-0.148-0.618-0.232-0.825-0.311c0.08-0.416,0.146-0.763,0.213-1.109c-0.044-0.027-0.088-0.054-0.131-0.08
			c-0.263,0.294-0.526,0.588-0.769,0.859c-0.209-0.11-0.375-0.197-0.633-0.334c0.059,0.499,0.104,0.881,0.158,1.342
			c-0.285-0.157-0.499-0.275-0.848-0.469c0.113,0.51,0.193,0.871,0.279,1.26c-0.303-0.107-0.54-0.189-0.975-0.343
			c0.208,0.573,0.354,0.974,0.539,1.483c-0.213-0.121-0.326-0.204-0.452-0.254c-0.146-0.057-0.304-0.086-0.554-0.152
			c0.142,0.506,0.252,0.898,0.382,1.363c-0.29-0.143-0.494-0.244-0.708-0.35c-0.388,0.552,0.278,0.833,0.227,1.316
			C38.387,81.22,38.157,81.125,37.926,81.03z M42.897,37.043c0-0.399,0-0.696,0-0.993c0-2.872,0-5.744,0-8.617
			c0-0.211,0.007-0.424-0.011-0.634c-0.039-0.45-0.322-0.415-0.743-0.328c0,3.333,0,6.643,0,10.055c-0.73,0-1.356,0-1.983,0
			c-1.27-0.001-2.54-0.002-3.81-0.006c-0.32,0-0.631,0.003-0.532,0.523C38.127,37.043,40.443,37.043,42.897,37.043z M26.451,26.465
			c0,3.568,0,7.059,0,10.561c2.378,0,4.688,0,6.999,0c0.039-0.631-0.39-0.498-0.685-0.5c-1.573-0.01-3.146,0.001-4.72-0.001
			c-0.287,0-0.574-0.032-0.933-0.054c0-3.391,0-6.678,0-10.006C26.865,26.465,26.696,26.465,26.451,26.465z M43.209,38.006
			c-0.147-0.291-0.189-0.516-0.292-0.548c-0.223-0.069-0.477-0.05-0.718-0.05c-1.905-0.001-3.809-0.014-5.713,0.013
			c-0.501,0.007-0.999,0.148-1.5,0.209c-0.232,0.028-0.473,0.032-0.705,0.006c-0.532-0.062-1.06-0.207-1.591-0.214
			c-1.843-0.027-3.688-0.011-5.532-0.01c-0.242,0-0.496-0.031-0.72,0.036c-0.126,0.038-0.202,0.246-0.438,0.559
			c0.563,0,0.888-0.001,1.213,0c1.784,0.006,3.567,0.016,5.351,0.016c0.455,0,0.864,0.038,1.275,0.324
			c0.501,0.348,1.13,0.348,1.623-0.018c0.385-0.286,0.769-0.303,1.19-0.304c1.814-0.006,3.628-0.013,5.441-0.019
			C42.418,38.005,42.741,38.006,43.209,38.006z M28.632,82.706c0.398,0.824,1.086,1.498,0.319,2.328
			c0.19,0.152,0.314,0.336,0.46,0.354c1.245,0.164,2.494,0.299,3.771,0.445c0.018-0.942-0.318-1.639-0.707-2.313
			c-0.066-0.113-0.214-0.229-0.34-0.25C31.021,83.078,29.903,82.907,28.632,82.706z M34.876,34.601
			c0.133,0.187,0.243,0.296,0.298,0.429c0.3,0.713,0.811,0.993,1.596,0.967c1.384-0.047,2.77-0.008,4.155-0.011
			c0.169,0,0.337-0.036,0.571-0.063c-0.363-0.552-0.677-1.031-1.041-1.584c-0.961,0.61-1.826,0.259-2.728-0.175
			C36.758,33.698,35.804,33.821,34.876,34.601z M34.923,84.411c-0.063,0-0.127,0.002-0.19,0.004
			c-0.107-0.28-0.204-0.564-0.323-0.839c-0.071-0.163-0.147-0.341-0.269-0.464c-0.258-0.26-0.578-0.355-0.892-0.106
			c-0.273,0.216-0.139,0.468-0.024,0.731c0.165,0.383,0.308,0.781,0.409,1.185c0.3,1.194,1.074,1.958,2.179,2.495
			c-0.264-1.006-0.054-1.941,0.146-2.888c0.07-0.333-0.016-0.725-0.122-1.061c-0.144-0.46-0.507-0.682-1.009-0.731
			C34.863,83.354,34.893,83.882,34.923,84.411z M28.188,74.457c-0.438,0.05-0.719,0.083-1.15,0.132
			c0.36,0.313,0.601,0.521,0.844,0.732c-0.119,0.131-0.237,0.259-0.45,0.492c0.416,0,0.675,0,0.926,0
			c0.139,0.311,0.233,0.788,0.38,0.805c0.552,0.063,0.542,0.541,0.711,0.877c0.557-0.273,0.813-0.667,0.924-1.258
			c-0.306,0.016-0.548,0.029-0.841,0.045c0.232-0.4,0.751-0.537,0.694-1.102c-0.379,0.049-0.712,0.091-1.119,0.143
			c0.284-0.455,0.78-0.661,0.916-1.24c-0.411,0.102-0.698,0.172-1.011,0.248c0.121-0.498,0.567-0.779,0.519-1.357
			c-0.286,0.135-0.491,0.23-0.674,0.316c-0.381-0.284-0.209-0.893-0.766-1.148c-0.035,0.49-0.064,0.895-0.094,1.314
			c-0.287,0-0.532,0-0.969,0C27.476,73.843,27.783,74.108,28.188,74.457z M36.386,85.749c0.997-0.074,1.985,0.129,2.636-0.65
			c0.436-0.52,0.684-1.202,0.866-2.006c-1.188,0.184-2.216,0.342-3.267,0.505C36.547,84.278,36.473,84.958,36.386,85.749z
			 M39.188,77.58c0.078,0,0.155,0.001,0.232,0.001c0.112-0.43,0.135-0.921,0.703-1.016c0.054-0.01,0.073-0.209,0.112-0.319
			c0.068-0.191,0.14-0.382,0.221-0.604c0.619,0.134,1.066-0.04,1.459-0.651c-0.43,0-0.731,0-1.165,0
			c0.452-0.407,0.798-0.719,1.144-1.029c-0.027-0.045-0.054-0.09-0.081-0.135c-0.22,0.014-0.439,0.027-0.678,0.043
			c-0.063-0.449-0.121-0.873-0.18-1.295c-0.057-0.002-0.113-0.004-0.169-0.006c-0.169,0.344-0.338,0.688-0.512,1.04
			c-0.27-0.056-0.514-0.104-0.854-0.174c0.215,0.494,0.385,0.884,0.578,1.327c-0.373-0.086-0.643-0.148-1.093-0.252
			c0.357,0.504,0.598,0.842,0.893,1.258c-0.332-0.023-0.581-0.041-0.721-0.052c-0.04,0.438-0.108,0.794-0.094,1.146
			C38.992,77.104,39.115,77.341,39.188,77.58z M31.048,70.665c-0.052-0.049-0.104-0.098-0.156-0.146
			c-0.208,0.088-0.417,0.177-0.606,0.258c-0.356-0.318-0.178-0.896-0.693-1.215c-0.073,0.502-0.13,0.896-0.188,1.301
			c-0.292-0.039-0.52-0.068-0.935-0.124c0.357,0.444,0.608,0.758,0.9,1.12c-0.233,0-0.399,0-0.636,0
			c0.096,0.27,0.183,0.511,0.268,0.748c0.331,0,0.616,0,0.753,0c0.539,0.291-0.189,0.959,0.528,1.064
			c0.169-0.244,0.333-0.48,0.497-0.717c-0.097-0.055-0.195-0.109-0.379-0.213c0.29-0.382,0.559-0.735,0.835-1.099
			c-0.288,0.079-0.558,0.152-0.96,0.263C30.587,71.403,30.817,71.034,31.048,70.665z M34.013,72.118
			c-0.114,0.875-0.114,0.875,0.317,0.977c0.061-0.297,0.122-0.595,0.183-0.892c0.049,0.005,0.098,0.009,0.147,0.013
			c0.072,0.505,0.144,1.01,0.215,1.514c0.074,0,0.147,0.002,0.221,0.002c-0.178-0.512-0.197-0.982,0.277-1.275
			c-0.125-0.391-0.233-0.725-0.339-1.055c0.267-0.311,0.526-0.603,0.769-0.908c0.038-0.048-0.007-0.16-0.015-0.268
			c-0.25,0.069-0.469,0.13-0.723,0.2c-0.108-0.437-0.204-0.821-0.3-1.207c-0.063,0.001-0.127,0.003-0.191,0.005
			c-0.11,0.387-0.221,0.775-0.333,1.171c-0.277-0.046-0.509-0.083-0.887-0.146c0.308,0.471,0.528,0.807,0.814,1.242
			c-0.27-0.043-0.413-0.082-0.557-0.086c-0.137-0.002-0.274,0.032-0.606,0.076C33.433,71.751,33.702,71.921,34.013,72.118z
			 M37.577,70.479c0.24,0.383,0.324,0.688,0.519,0.796c0.558,0.31,0.564,0.718,0.313,1.183c0.173,0.189,0.312,0.342,0.451,0.494
			c0.127,0.277-0.539,0.649,0.227,0.937c-0.211-1.009,0.748-1.218,1.141-1.905c-0.401,0-0.727,0-1.105,0
			c0.368-0.393,0.677-0.721,1.128-1.202c-0.464,0.051-0.681,0.075-0.893,0.098c-0.085-0.455-0.158-0.848-0.231-1.239
			c-0.064-0.004-0.129-0.006-0.193-0.01c-0.158,0.371-0.315,0.741-0.476,1.119C38.208,70.673,37.995,70.607,37.577,70.479z
			 M40.924,25.645c-0.096,0-0.192-0.001-0.288-0.002c0,2.743-0.001,5.485,0.004,8.228c0,0.08,0.07,0.16,0.107,0.24
			c0.08-0.028,0.16-0.057,0.24-0.085C40.956,31.231,41.063,28.438,40.924,25.645z M34.646,35.299
			c-0.232,0.288-0.459,0.559-0.674,0.838c-0.328,0.429-0.31,0.782,0.042,1.093c0.338,0.299,0.896,0.292,1.229-0.015
			c0.314-0.289,0.354-0.657,0.086-1.038C35.125,35.886,34.893,35.614,34.646,35.299z M27.737,34.924c0.023,0,0.046,0,0.069,0
			c0-2.754,0-5.508,0-8.262c-0.023,0-0.046,0-0.069,0C27.737,29.416,27.737,32.17,27.737,34.924z M41.519,34.788
			c0.017,0.007,0.033,0.014,0.05,0.021c0-2.627,0-5.254,0-7.881c-0.017,0-0.033,0-0.05,0C41.519,29.548,41.519,32.167,41.519,34.788
			z M41.124,34.568c0.346-1.373,0.268-7.851,0-8.428C41.124,28.985,41.124,31.777,41.124,34.568z M28.127,26.12
			c-0.191,0.663-0.211,7.605-0.024,8.428C28.301,33.871,28.321,26.932,28.127,26.12z M28.487,34.002
			c0.13-2.792,0.167-5.576-0.008-8.361C28.33,28.43,28.345,31.219,28.487,34.002z"/>
		<path fill-rule="evenodd" clip-rule="evenodd" fill="#F0F0F0" d="M126.263,71.345c0,6.344,0,12.688,0,19.086
			c0.678,0.231,1.404,0.082,2.114,0.107c0.692,0.025,1.386,0.006,2.162,0.006c0,0.427,0,0.791,0,1.206c-4.677,0-9.331,0-14.043,0
			c-0.026-0.184-0.065-0.353-0.071-0.522c-0.006-0.18,0.02-0.361,0.038-0.652c1.11,0,2.214,0,3.286,0
			c0.202-0.771,0.259-36.585,0.074-37.891c-1.083,0-2.187,0-3.345,0c0-0.457,0-0.803,0-1.215c0.275-0.02,0.539-0.055,0.802-0.055
			c5.484-0.002,10.969-0.001,16.454,0c2.35,0.001,4.656,0.289,6.86,1.141c2.609,1.008,4.627,2.679,5.522,5.407
			c1.217,3.71,0.525,8.343-3.982,11.017c-1.988,1.179-4.169,1.766-6.439,2.07c-0.567,0.076-1.136,0.143-1.793,0.224
			c0.148,0.26,0.246,0.473,0.38,0.659c4.319,5.998,8.646,11.992,12.954,17.998c0.314,0.438,0.643,0.658,1.191,0.623
			c0.66-0.042,1.324-0.01,2.053-0.01c0,0.418,0,0.764,0,1.213c-0.298,0.014-0.62,0.039-0.941,0.039
			c-2.424,0.004-4.849-0.023-7.271,0.019c-0.71,0.013-1.145-0.208-1.563-0.792c-4.531-6.331-9.093-12.641-13.647-18.956
			c-0.2-0.276-0.418-0.54-0.627-0.811C126.375,71.286,126.319,71.315,126.263,71.345z M126.25,70.31
			c2.818,0.023,5.57,0.23,8.236-0.692c2.577-0.892,4.333-2.593,5.095-5.241c0.528-1.836,0.6-3.701,0.188-5.567
			c-0.752-3.415-2.847-5.532-6.341-5.95c-2.326-0.278-4.706-0.11-7.062-0.139c-0.02,0-0.04,0.042-0.117,0.127
			C126.25,58.578,126.25,64.377,126.25,70.31z"/>
		<path fill-rule="evenodd" clip-rule="evenodd" fill="#F0F0F0" d="M177.055,91.511c-0.353-0.129-0.52-0.197-0.691-0.252
			c-2.891-0.929-4.577-3.43-4.419-6.743c0.152-3.189,1.837-5.29,4.729-6.495c0.388-0.161,0.786-0.297,1.226-0.463
			c-0.14-0.225-0.247-0.4-0.358-0.574c-1.761-2.762-2.216-5.761-1.35-8.881c0.949-3.419,3.386-5.443,6.711-6.412
			c2.541-0.738,5.085-0.619,7.589,0.275c0.332,0.119,0.702,0.18,1.056,0.184c1.817,0.018,3.635,0.008,5.452,0.008
			c0.299,0,0.598,0,0.969,0c0,0.527,0,0.994,0,1.597c-1.371,0-2.767,0-4.265,0c0.13,0.218,0.159,0.304,0.216,0.358
			c2.882,2.785,3.432,6.211,2.395,9.871c-1.05,3.706-3.728,5.854-7.443,6.688c-1.916,0.431-3.855,0.33-5.773-0.055
			c-1.141-0.229-2.198-0.688-3.131-1.388c-0.54-0.405-1.092-0.445-1.712-0.252c-1.048,0.327-1.91,0.914-2.554,1.798
			c-1.201,1.65-0.699,3.857,1.097,4.827c1.229,0.664,2.588,0.854,3.951,0.903c1.906,0.068,3.815,0.047,5.724,0.059
			c2.242,0.014,4.489,0.013,6.686,0.527c0.847,0.197,1.689,0.497,2.467,0.885c1.73,0.859,2.652,2.339,2.921,4.229
			c0.333,2.353-0.295,4.439-1.815,6.257c-1.61,1.924-3.683,3.151-6.072,3.786c-4.19,1.115-8.337,0.854-12.397-0.662
			c-1.056-0.395-2.014-0.979-2.868-1.722c-0.717-0.624-1.306-1.35-1.685-2.228c-0.667-1.543-0.477-2.985,0.672-4.211
			c0.529-0.564,1.215-0.983,1.843-1.451C176.432,91.817,176.682,91.715,177.055,91.511z M185.635,91.909
			c0,0.019-0.001,0.037-0.002,0.055c-1.905-0.053-3.813-0.08-5.717-0.17c-0.677-0.033-1.155,0.209-1.591,0.681
			c-1.64,1.771-1.685,4.664-0.075,6.458c1.065,1.188,2.421,1.92,3.945,2.295c3.252,0.799,6.438,0.539,9.474-0.89
			c0.859-0.405,1.635-1.027,2.372-1.642c0.657-0.546,1.083-1.291,1.323-2.13c0.604-2.106-0.29-3.696-2.402-4.202
			c-0.526-0.127-1.072-0.209-1.612-0.235C189.445,92.038,187.54,91.979,185.635,91.909z M181.475,71.237
			c0.063,0.005,0.126,0.01,0.189,0.015c0,0.849-0.041,1.698,0.01,2.544c0.073,1.24,0.226,2.473,0.699,3.641
			c0.543,1.34,1.547,2.063,2.974,2.183c0.541,0.046,1.091,0.048,1.633,0.009c1.273-0.088,2.271-0.686,2.844-1.827
			c0.336-0.669,0.597-1.397,0.748-2.13c0.503-2.422,0.47-4.877,0.276-7.33c-0.098-1.24-0.292-2.467-0.815-3.614
			c-0.508-1.114-1.308-1.933-2.543-2.112c-0.796-0.116-1.633-0.105-2.431,0.001c-1.051,0.14-1.85,0.771-2.319,1.72
			c-0.307,0.617-0.604,1.278-0.706,1.95C181.785,67.927,181.653,69.585,181.475,71.237z"/>
		<path fill-rule="evenodd" clip-rule="evenodd" fill="#F0F0F0" d="M212.651,91.794c0-0.448,0-0.794,0-1.241c1.027,0,2.013,0,3.05,0
			c0-9.085,0-18.069,0-27.153c-1.042,0-2.027,0-3.048,0c0-0.448,0-0.794,0-1.19c2.676,0,5.303,0,8.064,0
			c0.073,1.226-0.002,2.478,0.052,3.946c0.289-0.386,0.45-0.584,0.595-0.794c2.652-3.86,6.898-4.872,10.904-3.688
			c2.635,0.778,3.977,2.757,4.446,5.357c0.183,1.006,0.234,2.047,0.237,3.072c0.021,6.423,0.011,12.846,0.011,19.27
			c0,0.354,0,0.709,0,1.164c1.096,0,2.08,0,3.122,0c0,0.445,0,0.791,0,1.198c-3.947,0-7.869,0-11.859,0c0-0.358,0-0.704,0-1.149
			c1.047,0,2.093,0,3.197,0c0.039-0.32,0.092-0.549,0.092-0.777c0.001-7.09,0.004-14.18-0.016-21.27
			c-0.001-0.722-0.075-1.458-0.231-2.162c-0.436-1.973-1.483-3.277-4.303-3.059c-1.815,0.141-3.178,1.098-4.169,2.593
			c-0.944,1.425-1.351,3.032-1.499,4.711c-0.061,0.692-0.063,1.393-0.063,2.089c-0.005,5.575-0.003,11.15-0.003,16.725
			c0,0.328,0,0.654,0,1.081c1.128,0,2.173,0,3.286,0c0,0.442,0,0.789,0,1.275C220.594,91.797,216.647,91.793,212.651,91.794z"/>
		<path fill-rule="evenodd" clip-rule="evenodd" fill="#F0F0F0" d="M245.051,72.689c-0.445,0-0.796,0-1.199,0
			c0-3.132,0-6.211,0-9.354c1.294-0.617,2.669-1.062,4.064-1.441c3.072-0.834,6.156-0.936,9.243-0.089
			c1.268,0.348,2.442,0.902,3.472,1.733c1.729,1.397,2.64,3.188,2.638,5.437c-0.008,6.788-0.003,13.575-0.002,20.362
			c0,0.357,0,0.717,0,1.184c0.937,0,1.797,0,2.713,0c0,0.457,0,0.805,0,1.216c-2.561,0-5.119,0-7.812,0c0-1.613,0-3.22,0-4.825
			c-0.063-0.01-0.128-0.019-0.192-0.027c-0.122,0.226-0.245,0.451-0.366,0.678c-1.795,3.329-4.567,5.102-8.363,5.142
			c-1.018,0.011-2.064-0.108-3.053-0.351c-3.745-0.914-6.086-3.857-5.897-8.244c0.022-0.513,0.084-1.029,0.183-1.532
			c0.425-2.165,1.647-3.735,3.601-4.745c1.468-0.76,3.054-1.154,4.66-1.475c1.899-0.379,3.816-0.682,5.7-1.125
			c1.081-0.255,2.115-0.716,3.164-1.102c0.323-0.119,0.567-0.316,0.561-0.731c-0.038-2.24,0.038-4.488-0.114-6.72
			c-0.178-2.59-1.806-4.049-4.392-4.178c-0.483-0.025-0.971-0.023-1.453,0.011c-1.436,0.102-2.663,0.667-3.48,1.866
			c-0.61,0.895-1.158,1.852-1.595,2.842c-0.622,1.41-1.117,2.877-1.664,4.32C245.327,71.907,245.2,72.277,245.051,72.689z
			 M257.973,75.407c-2.197,1.006-4.541,1.482-6.846,2.09c-0.583,0.154-1.153,0.365-1.712,0.593c-1.639,0.665-2.62,1.901-3.016,3.604
			c-0.389,1.67-0.401,3.361-0.146,5.049c0.081,0.531,0.256,1.061,0.46,1.561c0.507,1.243,1.454,1.982,2.769,2.23
			c2.534,0.477,4.578-0.396,6.199-2.335c1.009-1.207,1.602-2.631,1.971-4.144c0.682-2.797,0.529-5.645,0.458-8.484
			C258.11,75.55,258.076,75.528,257.973,75.407z"/>
		<path fill-rule="evenodd" clip-rule="evenodd" fill="#F0F0F0" d="M153.927,74.13c-0.064,0.252-0.104,0.338-0.105,0.424
			c-0.091,3.551-0.001,7.086,0.906,10.549c0.309,1.178,0.738,2.306,1.401,3.334c1.137,1.762,2.729,2.678,4.852,2.688
			c3.798,0.017,6.538-1.775,8.017-5.28c0.557-1.321,0.866-2.704,1.045-4.122c0.038-0.295,0.078-0.592,0.122-0.935
			c0.4,0,0.746,0,1.147,0c0.1,0.858-0.048,1.684-0.187,2.511c-0.267,1.598-0.765,3.114-1.6,4.508
			c-1.764,2.939-4.402,4.551-7.776,4.854c-5.086,0.458-8.933-1.626-11.584-5.95c-1.271-2.073-1.938-4.365-2.246-6.758
			c-0.416-3.226-0.2-6.408,0.851-9.505c0.842-2.482,2.152-4.677,4.156-6.397c3.282-2.821,7.028-3.48,11.128-2.232
			c1.628,0.496,3.009,1.426,4.109,2.727c2.318,2.74,2.959,6.006,2.987,9.586C165.37,74.13,159.665,74.13,153.927,74.13z
			 M165.113,72.842c0.022-1.985,0.13-3.891-0.313-5.762c-0.18-0.759-0.406-1.524-0.745-2.224c-0.771-1.586-2.085-2.368-3.861-2.373
			c-2.036-0.006-3.426,1.039-4.39,2.725c-1.34,2.342-1.701,4.931-1.896,7.634C157.65,72.842,161.323,72.842,165.113,72.842z"/>
		<path fill-rule="evenodd" clip-rule="evenodd" fill="#F0F0F0" d="M225.712,28.313c-1.174,0-2.22,0-3.299,0
			c0-0.303,0-0.505,0-0.774c2.003,0,3.985,0,6.036,0c0.019,0.219,0.036,0.439,0.059,0.725c-0.599,0.031-1.134,0.06-1.722,0.09
			c-0.138,0.371-0.279,0.733-0.406,1.1c-2.245,6.462-4.479,12.928-6.741,19.384c-0.35,0.996-0.75,1.989-1.256,2.913
			c-1.148,2.097-3.638,2.818-5.791,1.748c-0.381-0.189-0.734-0.384-0.729-0.925c0.021-1.815,0.009-3.63,0.009-5.537
			c0.286-0.021,0.534-0.04,0.822-0.062c0.336,1.204,0.635,2.343,0.978,3.469c0.193,0.634,0.396,1.28,0.71,1.858
			c0.492,0.909,1.332,1.069,2.125,0.405c0.431-0.361,0.853-0.816,1.081-1.319c0.585-1.291,1.073-2.626,1.563-3.958
			c0.083-0.225,0.045-0.545-0.051-0.775c-2.487-6.015-4.989-12.024-7.492-18.033c-0.033-0.082-0.103-0.148-0.184-0.263
			c-1.63,0-3.283,0-5.007,0c-0.024,0.289-0.064,0.549-0.064,0.811c-0.004,4.999-0.003,9.998-0.001,14.997
			c0,0.242,0.001,0.487,0.034,0.726c0.121,0.87,0.606,1.35,1.473,1.475c1.75,0.253,2.794-0.49,3.095-2.25
			c0.103-0.593,0.136-1.203,0.152-1.806c0.024-0.905,0.006-1.812,0.006-2.773c0.242-0.035,0.436-0.064,0.608-0.089
			c0.065,0.081,0.133,0.126,0.136,0.175c0.092,1.633,0.168,3.268-0.162,4.884c-0.377,1.847-1.512,2.934-3.378,3.18
			c-0.715,0.094-1.459,0.121-2.172,0.032c-1.983-0.247-3.137-1.508-3.356-3.581c-0.048-0.451-0.043-0.908-0.044-1.362
			c-0.003-4.454-0.002-8.908-0.002-13.361c0-0.326,0-0.652,0-1.072c-0.836,0-1.579,0-2.386,0c-0.023-0.309-0.04-0.528-0.063-0.844
			c0.817,0,1.563,0,2.417,0c0.074-1.554,0-3.028,0.047-4.482c0.707-0.217,2.653-0.236,3.599-0.023c0,1.443,0,2.912,0,4.474
			c3.993,0,7.888,0,11.837,0c0,0.317,0,0.538,0,0.844c-0.916,0-1.785,0-2.822,0c1.893,4.532,3.729,8.931,5.566,13.33
			c0.06,0.005,0.12,0.01,0.181,0.015C222.663,37.262,224.158,32.85,225.712,28.313z"/>
		<path fill-rule="evenodd" clip-rule="evenodd" fill="#F0F0F0" d="M208.353,90.563c0.991,0,1.83,0,2.724,0c0,0.422,0,0.769,0,1.176
			c-3.633,0-7.254,0-10.934,0c-0.023-0.178-0.061-0.348-0.065-0.519c-0.004-0.179,0.023-0.357,0.046-0.659c0.9,0,1.789,0,2.729,0
			c0-9.08,0-18.036,0-27.119c-0.9,0-1.787,0-2.725,0c0-0.473,0-0.818,0-1.225c2.711,0,5.395,0,8.209,0
			c0.033,2.346,0.011,4.696,0.015,7.047c0.005,2.363,0.001,4.727,0.001,7.09c0,2.334,0,4.666,0,7
			C208.353,85.711,208.353,88.067,208.353,90.563z"/>
		<path fill-rule="evenodd" clip-rule="evenodd" fill="#F0F0F0" d="M109.979,46.355c0.811,0,1.469,0,2.168,0
			c0,0.296,0,0.518,0,0.784c-2.615,0-5.179,0-7.784,0c-0.038-0.125-0.089-0.231-0.099-0.342c-0.009-0.115,0.023-0.233,0.046-0.43
			c0.641,0,1.267,0,1.865,0c0.229-0.699,0.299-16.617,0.092-18.005c-0.626-0.03-1.275-0.061-1.965-0.093c0-0.253,0-0.453,0-0.648
			c0.65-0.181,4.114-0.221,5.336-0.047c0,0.741,0,1.504,0,2.269c0.058,0.015,0.115,0.029,0.172,0.043
			c0.145-0.17,0.298-0.334,0.433-0.513c1.752-2.321,4.385-2.961,6.976-2.232c2.051,0.578,2.886,2.165,3.133,4.139
			c0.071,0.568,0.061,1.149,0.062,1.724c0.005,4.058,0.002,8.117,0.002,12.175c0,0.354,0,0.708,0,1.148c0.741,0,1.365,0,2.049,0
			c0,0.307,0,0.525,0,0.801c-2.62,0-5.209,0-7.834,0c-0.012-0.248-0.021-0.452-0.035-0.762c0.714,0,1.395,0,2.133,0
			c0.029-0.36,0.069-0.621,0.07-0.883c0.003-4.513,0.013-9.026-0.01-13.538c-0.003-0.689-0.088-1.396-0.264-2.06
			c-0.255-0.968-0.932-1.516-1.96-1.618c-1.462-0.146-2.604,0.393-3.455,1.569c-0.694,0.961-0.99,2.069-1.088,3.23
			c-0.051,0.602-0.042,1.21-0.043,1.816c-0.003,3.453-0.001,6.905-0.001,10.358C109.979,45.566,109.979,45.893,109.979,46.355z"/>
		<path fill-rule="evenodd" clip-rule="evenodd" fill="#F0F0F0" d="M85.143,21.181c-0.694,0-1.237-0.01-1.781,0.003
			c-0.525,0.013-0.624-0.253-0.457-0.83c3.003-0.014,6.041-0.004,9.119-0.006c0,0.3,0,0.501,0,0.817c-0.892,0-1.752,0-2.667,0
			c-0.025,0.374-0.06,0.638-0.06,0.901c-0.002,6.211-0.001,12.422-0.001,18.633c0,1.068,0.129,2.119,0.524,3.117
			c0.781,1.975,2.239,3.034,4.368,3.125c3.815,0.162,6.472-2.39,6.547-6.31c0.034-1.817,0.007-3.636,0.008-5.454
			c0-4.302,0-8.604,0-12.907c0-0.325,0-0.649,0-1.067c-1.18,0-2.257,0-3.394,0c-0.026-0.31-0.045-0.531-0.069-0.807
			c2.269,0,4.471,0,6.748,0c0.022,0.209,0.046,0.43,0.083,0.768c-0.784,0-1.493,0-2.314,0c0,0.46,0,0.814,0,1.168
			c0,5.938,0.017,11.876-0.017,17.815c-0.005,0.958-0.103,1.955-0.384,2.864c-0.911,2.945-3.097,4.388-6.054,4.713
			c-1.755,0.193-3.509,0.035-5.218-0.466c-2.829-0.829-4.433-2.717-4.83-5.625c-0.098-0.717-0.145-1.447-0.146-2.171
			c-0.011-5.696-0.006-11.392-0.006-17.088C85.143,22.019,85.143,21.662,85.143,21.181z"/>
		<path fill-rule="evenodd" clip-rule="evenodd" fill="#F0F0F0" d="M190.173,28.205c0,2.058,0,4.082,0,6.186
			c-0.312,0.024-0.598,0.047-0.939,0.074c-0.106-0.28-0.209-0.523-0.292-0.773c-0.359-1.092-0.688-2.196-1.08-3.276
			c-0.193-0.536-0.475-1.046-0.766-1.54c-0.303-0.512-0.767-0.892-1.349-1.011c-1.863-0.378-3.631-0.17-5.146,1.085
			c-0.986,0.816-1.319,2.016-0.941,3.103c0.229,0.659,0.666,1.174,1.255,1.507c0.761,0.43,1.553,0.819,2.364,1.143
			c1.152,0.459,2.346,0.814,3.499,1.27c0.758,0.299,1.506,0.646,2.208,1.057c2.307,1.352,3.082,3.488,2.178,6.264
			c-0.503,1.543-1.585,2.628-2.994,3.392c-1.589,0.859-3.304,1.142-5.091,1.094c-1.96-0.054-4.322-0.715-5.937-1.697
			c0-2.221,0-4.475,0-6.763c0.201-0.018,0.346-0.043,0.491-0.042c0.146,0.002,0.292,0.03,0.462,0.049
			c0.28,1.113,0.516,2.206,0.837,3.272c0.252,0.837,0.556,1.668,0.934,2.455c0.557,1.16,1.543,1.752,2.822,1.848
			c1.092,0.082,2.184,0.103,3.243-0.237c1.731-0.555,2.846-1.658,3.121-3.522c0.133-0.904-0.128-1.644-0.881-2.132
			c-0.631-0.409-1.31-0.765-2.007-1.044c-1.291-0.518-2.628-0.925-3.916-1.45c-0.922-0.375-1.832-0.806-2.687-1.315
			c-3.773-2.25-2.747-6.855-0.445-8.64c1.134-0.879,2.416-1.371,3.819-1.568C185.47,26.638,187.875,27.047,190.173,28.205z"/>
		<path fill-rule="evenodd" clip-rule="evenodd" fill="#F0F0F0" d="M161.559,39.861c0.28,0,0.482,0,0.695,0
			c0.037,0.094,0.1,0.177,0.096,0.257c-0.084,1.69-0.455,3.306-1.429,4.716c-1.701,2.463-4.146,3.239-6.993,2.854
			c-2.541-0.343-4.391-1.785-5.674-3.966c-1.186-2.016-1.589-4.232-1.571-6.54c0.016-2.058,0.407-4.036,1.403-5.856
			c1.238-2.261,3.021-3.877,5.625-4.333c3.124-0.546,6.458,0.606,7.843,4.355c0.505,1.364,0.724,2.9,0.544,4.062
			c-3.729,0-7.473,0-11.242,0c-0.064,0.2-0.144,0.335-0.147,0.472c-0.052,2.275-0.003,4.543,0.583,6.761
			c0.131,0.495,0.3,0.986,0.507,1.454c0.946,2.13,2.561,2.965,4.846,2.545c1.83-0.337,3.136-1.355,3.957-3.014
			C161.171,42.476,161.42,41.234,161.559,39.861z M158.209,34.583c0.029-1.408,0.079-2.706-0.223-3.981
			c-0.109-0.466-0.276-0.929-0.49-1.357c-0.502-1.009-1.346-1.514-2.475-1.542c-1.269-0.033-2.196,0.553-2.866,1.591
			c-0.737,1.143-1.045,2.432-1.234,3.755c-0.07,0.492-0.1,0.99-0.153,1.535C153.29,34.583,155.694,34.583,158.209,34.583z"/>
		<path fill-rule="evenodd" clip-rule="evenodd" fill="#F0F0F0" d="M165.274,28.315c-0.645,0-1.241,0-1.903,0
			c-0.018-0.289-0.032-0.512-0.05-0.79c1.861,0,3.665,0,5.565,0c0,0.856,0,1.688,0,2.519c0.058,0.015,0.116,0.031,0.174,0.046
			c0.182-0.328,0.363-0.656,0.545-0.983c1.398-2.511,4.349-2.652,6.444-1.663c0.147,0.07,0.3,0.318,0.301,0.485
			c0.02,2.357,0.014,4.714,0.014,7.056c-0.808,0.162-0.817,0.165-1.042-0.482c-0.487-1.4-0.951-2.808-1.449-4.204
			c-0.172-0.481-0.375-0.964-0.645-1.396c-0.445-0.716-1.192-0.906-1.87-0.4c-0.493,0.368-0.933,0.871-1.25,1.4
			c-0.779,1.302-1.077,2.771-1.093,4.265c-0.041,3.906-0.022,7.812-0.023,11.718c0,0.115,0.046,0.23,0.088,0.436
			c0.782,0,1.556,0,2.391,0c0,0.316,0,0.536,0,0.809c-2.714,0-5.396,0-8.113,0c-0.013-0.248-0.023-0.451-0.039-0.755
			c0.654,0,1.274,0,1.862,0C165.409,45.651,165.481,29.76,165.274,28.315z"/>
		<path fill-rule="evenodd" clip-rule="evenodd" fill="#F0F0F0" d="M130.903,28.353c-0.552-0.03-1.028-0.057-1.546-0.085
			c-0.012-0.247-0.021-0.447-0.029-0.639c0.668-0.188,7.027-0.24,8.28-0.071c0.026,0.095,0.076,0.204,0.081,0.315
			c0.005,0.114-0.033,0.23-0.068,0.438c-0.935,0-1.86,0-2.927,0c1.72,4.873,3.393,9.615,5.065,14.358
			c0.075,0,0.149,0.001,0.223,0.001c1.695-4.73,3.39-9.46,5.133-14.327c-1.073,0-2.02,0-3.021,0c0-0.329,0-0.551,0-0.82
			c1.892,0,3.755,0,5.658,0c0.016,0.249,0.028,0.451,0.045,0.729c-0.533,0.038-1.034,0.073-1.596,0.112
			c-2.27,6.282-4.539,12.564-6.824,18.89c-0.532,0-1.033,0-1.611,0C135.487,40.978,133.208,34.7,130.903,28.353z"/>
		<path fill-rule="evenodd" clip-rule="evenodd" fill="#F0F0F0" d="M104.207,70.37c0.007,1.389-0.287,2.957-1.095,4.389
			c-1.156,2.051-2.86,3.262-5.285,3.25c-2.387-0.011-4.129-1.186-5.192-3.238c-1.579-3.051-1.577-6.197,0.011-9.244
			c1.388-2.664,4.195-3.816,6.908-2.984c1.588,0.486,2.729,1.531,3.529,2.96C103.887,66.937,104.205,68.495,104.207,70.37z
			 M101.311,70.181c-0.064-0.005-0.128-0.01-0.191-0.014c0-0.816,0.039-1.635-0.01-2.447c-0.066-1.088-0.233-2.163-0.686-3.174
			c-0.5-1.113-1.366-1.657-2.576-1.652c-1.214,0.004-2.08,0.563-2.553,1.686c-0.164,0.387-0.301,0.793-0.387,1.203
			c-0.512,2.423-0.467,4.871-0.227,7.313c0.085,0.862,0.302,1.729,0.586,2.549c0.408,1.178,1.303,1.774,2.567,1.781
			c1.287,0.007,2.139-0.563,2.656-1.805c0.127-0.306,0.254-0.625,0.295-0.949C100.978,73.177,101.139,71.678,101.311,70.181z"/>
		<path fill-rule="evenodd" clip-rule="evenodd" fill="#F0F0F0" d="M128.753,46.356c0.641,0,1.151,0,1.732,0
			c0.016,0.268,0.029,0.488,0.046,0.766c-2.414,0-4.767,0-7.194,0c-0.03-0.222-0.06-0.439-0.106-0.779
			c0.376,0,0.671,0.007,0.965-0.002c0.265-0.008,0.528-0.033,0.844-0.054c0-5.98,0-11.904,0-17.915
			c-0.576-0.038-1.134-0.074-1.735-0.113c0-0.259,0-0.479,0-0.735c1.805,0,3.547,0,5.404,0c0,0.401,0,0.756,0,1.111
			c0,5.545-0.001,11.09,0.002,16.635C128.71,45.617,128.737,45.964,128.753,46.356z"/>
		<path fill-rule="evenodd" clip-rule="evenodd" fill="#F0F0F0" d="M198.151,46.301c0.712,0.034,1.248,0.059,1.818,0.086
			c0,0.257,0,0.459,0,0.725c-2.399,0-4.775,0-7.194,0c-0.017-0.229-0.031-0.43-0.052-0.712c0.598-0.037,1.155-0.071,1.773-0.109
			c0-5.962,0-11.887,0-17.935c-0.546-0.024-1.103-0.05-1.722-0.078c-0.013-0.258-0.023-0.479-0.036-0.754c1.812,0,3.556,0,5.412,0
			C198.151,33.777,198.151,39.999,198.151,46.301z"/>
		<path fill-rule="evenodd" clip-rule="evenodd" fill="#F0F0F0" d="M108.995,76.942c0.561,0,1.07-0.025,1.575,0.014
			c0.16,0.012,0.306,0.195,0.458,0.299c-0.149,0.105-0.298,0.301-0.449,0.303c-1.755,0.021-3.511,0.021-5.267,0.002
			c-0.161-0.002-0.439-0.16-0.456-0.277c-0.052-0.348,0.251-0.332,0.495-0.342c0.24-0.01,0.48-0.022,0.711-0.033
			c0.201-0.652,0.27-11.937,0.079-13.48c-0.302-0.018-0.628-0.006-0.941-0.065c-0.136-0.024-0.245-0.192-0.366-0.296
			c0.118-0.105,0.226-0.283,0.357-0.304c0.293-0.046,0.599-0.015,1.016-0.015c0.007-0.501,0.018-0.942,0.02-1.385
			c0.013-3.005,1.442-4.438,4.475-4.445c0.57-0.001,1.144,0.085,1.712,0.163c0.292,0.04,0.574,0.149,0.901,0.239
			c0,1.265,0,2.49,0,3.695c-0.528,0.229-0.613-0.113-0.739-0.435c-0.297-0.759-0.587-1.523-0.928-2.263
			c-0.212-0.461-0.586-0.753-1.138-0.771c-0.704-0.024-1.156,0.248-1.401,0.909c-0.073,0.197-0.145,0.409-0.147,0.615
			c-0.014,1.175-0.007,2.351-0.007,3.638c1.15,0,2.252,0,3.309,0c0.24,0.507,0.085,0.669-0.319,0.669
			c-0.636,0.001-1.271,0.002-1.907,0.003c-0.327,0-0.654,0-1.041,0C108.995,67.903,108.995,72.337,108.995,76.942z"/>
		<path fill-rule="evenodd" clip-rule="evenodd" fill="#F0F0F0" d="M208.922,55.547c-0.005,1.925-1.414,3.32-3.337,3.303
			c-1.886-0.016-3.25-1.387-3.268-3.282c-0.018-1.923,1.382-3.351,3.292-3.358C207.517,52.202,208.928,53.622,208.922,55.547z"/>
		<path fill-rule="evenodd" clip-rule="evenodd" fill="#F0F0F0" d="M126.87,25.258c-1.279-0.006-2.151-0.883-2.154-2.167
			c-0.002-1.277,0.88-2.181,2.142-2.194c1.284-0.013,2.242,0.947,2.222,2.227C129.059,24.376,128.14,25.264,126.87,25.258z"/>
		<path fill-rule="evenodd" clip-rule="evenodd" fill="#F0F0F0" d="M196.342,25.258c-1.282-0.005-2.154-0.88-2.157-2.164
			c-0.004-1.275,0.879-2.182,2.14-2.196c1.286-0.015,2.239,0.939,2.22,2.224C198.525,24.379,197.614,25.264,196.342,25.258z"/>
		<path fill-rule="evenodd" clip-rule="evenodd" fill="#F0F0F0" d="M37.147,34.628c-0.263,0-0.526,0-0.79,0c0-0.014,0-0.028,0-0.042
			c0.263,0,0.526,0,0.79,0C37.147,34.6,37.147,34.614,37.147,34.628z"/>
		<path fill-rule="evenodd" clip-rule="evenodd" fill="#F0F0F0" d="M36.955,35.326c0.125,0,0.251,0,0.376,0
			c0,0.014-0.001,0.028-0.001,0.042c-0.115,0.006-0.23,0.013-0.345,0.019C36.975,35.366,36.965,35.346,36.955,35.326z"/>
		<path fill-rule="evenodd" clip-rule="evenodd" fill="#F0F0F0" d="M32.181,34.587c0.258,0,0.516,0,0.773,0c0,0.014,0,0.027,0,0.042
			c-0.258,0-0.516,0-0.773,0C32.181,34.615,32.181,34.601,32.181,34.587z"/>
		<path fill-rule="evenodd" clip-rule="evenodd" fill="#F0F0F0" d="M28.246,35.68c0.278,0,0.556,0,0.834,0
			c-0.001,0.024-0.003,0.049-0.004,0.074c-0.276-0.023-0.552-0.047-0.828-0.07L28.246,35.68z"/>
	</g>
</g>
</svg>
